<?xml version="1.0" encoding="UTF-8" standalone="no"?>
<svg width="233px" height="48px" viewBox="0 0 233 48" version="1.1" xmlns="http://www.w3.org/2000/svg" xmlns:xlink="http://www.w3.org/1999/xlink" xmlns:sketch="http://www.bohemiancoding.com/sketch/ns">
    <!-- Generator: Sketch 3.3.3 (12072) - http://www.bohemiancoding.com/sketch -->
    <title>FS Logo</title>
    <desc>Created with Sketch.</desc>
    <defs></defs>
    <g id="Landing-Page" stroke="none" stroke-width="1" fill="none" fill-rule="evenodd" sketch:type="MSPage">
        <g id="Landing-Page-Desktop-1024" sketch:type="MSArtboardGroup" transform="translate(-161.000000, -48.000000)" fill="#334667">
            <g id="Header" sketch:type="MSLayerGroup">
                <g id="FS-Logo" transform="translate(161.000000, 48.000000)" sketch:type="MSShapeGroup">
                    <g id="Group">
                        <path d="M0.2,0 L0.2,48 L232.866667,48 L232.866667,0 L0.2,0 L0.2,0 Z M227.933333,43.0666667 L5.13333333,43.0666667 L5.13333333,4.93333333 L228.066667,4.93333333 L228.066667,43.0666667 L227.933333,43.0666667 Z" id="Shape"></path>
                        <g transform="translate(12.333333, 12.000000)" id="Shape">
                            <path d="M13.0666667,5.33333333 L6,5.33333333 L6,9.6 L12.5333333,9.6 L12.5333333,13.8666667 L6,13.8666667 L6,22.9333333 L0.933333333,22.9333333 L0.933333333,1.06666667 L13.0666667,1.06666667 L13.0666667,5.33333333 L13.0666667,5.33333333 Z"></path>
                            <path d="M24.6666667,1.06666667 L24.6666667,22.9333333 L19.6,22.9333333 L19.6,1.06666667 L24.6666667,1.06666667 L24.6666667,1.06666667 Z"></path>
                            <path d="M44.6666667,5.33333333 L37.3333333,5.33333333 L37.3333333,9.6 L44.2666667,9.6 L44.2666667,13.8666667 L37.3333333,13.8666667 L37.3333333,18.6666667 L44.6666667,18.6666667 L44.6666667,22.9333333 L32.4,22.9333333 L32.4,1.06666667 L44.6666667,1.06666667 L44.6666667,5.33333333 L44.6666667,5.33333333 Z"></path>
                            <path d="M57.0666667,1.06666667 L57.0666667,18.6666667 L63.8666667,18.6666667 L63.8666667,22.9333333 L52,22.9333333 L52,1.06666667 L57.0666667,1.06666667 L57.0666667,1.06666667 Z"></path>
                            <path d="M76.1333333,1.06666667 C79.0666667,1.06666667 82,1.46666667 84.8,4.13333333 C86.6666667,6 88,8.53333333 88,12 C88,15.4666667 86.8,17.8666667 85.0666667,19.7333333 C82,22.8 78.2666667,23.0666667 76.4,23.0666667 L69.3333333,23.0666667 L69.3333333,1.2 L76.1333333,1.2 L76.1333333,1.06666667 Z M74.2666667,18.6666667 L75.6,18.6666667 C76.6666667,18.6666667 78.9333333,18.5333333 80.5333333,17.2 C81.7333333,16.2666667 82.6666667,14.4 82.6666667,11.8666667 C82.6666667,9.46666667 81.7333333,8 80.9333333,7.2 C79.3333333,5.6 77.2,5.33333333 75.6,5.33333333 L74.2666667,5.33333333 L74.2666667,18.6666667 L74.2666667,18.6666667 Z"></path>
                            <path d="M105.2,6.4 C103.6,4.93333333 102.133333,4.8 101.6,4.8 C100.933333,4.8 100,4.93333333 99.4666667,5.6 C99.2,5.86666667 98.9333333,6.4 98.9333333,6.93333333 C98.9333333,7.46666667 99.0666667,7.86666667 99.4666667,8.13333333 C100,8.66666667 100.8,8.8 102.266667,9.33333333 L103.866667,10 C104.8,10.4 106,10.8 106.8,11.7333333 C108.133333,12.9333333 108.4,14.5333333 108.4,15.7333333 C108.4,18 107.6,20 106.533333,21.0666667 C104.666667,23.0666667 101.733333,23.3333333 100.4,23.3333333 C98.8,23.3333333 97.4666667,23.0666667 96.1333333,22.4 C95.0666667,21.8666667 93.7333333,20.8 92.9333333,20 L95.6,16.4 C96.1333333,16.9333333 97.0666667,17.7333333 97.6,18.1333333 C98.4,18.6666667 99.3333333,18.9333333 100.4,18.9333333 C101.066667,18.9333333 102,18.8 102.666667,18.1333333 C103.066667,17.7333333 103.466667,17.2 103.466667,16.4 C103.466667,15.7333333 103.2,15.2 102.666667,14.8 C102.133333,14.2666667 100.8,13.8666667 100.133333,13.6 L98.4,12.9333333 C97.3333333,12.5333333 96.2666667,12.1333333 95.3333333,11.2 C94.1333333,10 94,8.4 94,7.46666667 C94,5.6 94.5333333,3.86666667 95.8666667,2.53333333 C97.4666667,0.933333333 99.2,0.533333333 101.2,0.533333333 C102.666667,0.533333333 105.066667,0.8 107.733333,2.66666667 L105.2,6.4 L105.2,6.4 Z"></path>
                            <path d="M127.2,18.8 L118.933333,18.8 L117.2,22.9333333 L112,22.9333333 L120.8,1.06666667 L125.466667,1.06666667 L134.133333,22.9333333 L128.933333,22.9333333 L127.2,18.8 L127.2,18.8 Z M125.866667,14.9333333 L123.2,7.6 L120.533333,14.9333333 L125.866667,14.9333333 L125.866667,14.9333333 Z"></path>
                            <path d="M140.533333,1.06666667 L146,15.0666667 L151.466667,1.06666667 L156.933333,1.06666667 L147.733333,22.9333333 L144.266667,22.9333333 L135.066667,1.06666667 L140.533333,1.06666667 L140.533333,1.06666667 Z"></path>
                            <path d="M166.8,1.06666667 L172.266667,15.0666667 L177.733333,1.06666667 L183.2,1.06666667 L174,22.9333333 L170.533333,22.9333333 L161.333333,1.06666667 L166.8,1.06666667 L166.8,1.06666667 Z"></path>
                            <path d="M195.333333,12.8 L187.466667,1.2 L193.466667,1.2 L197.866667,8 L202.266667,1.2 L208.266667,1.2 L200.4,12.8 L200.4,22.9333333 L195.333333,22.9333333 L195.333333,12.8 L195.333333,12.8 Z"></path>
                        </g>
                    </g>
                </g>
            </g>
        </g>
    </g>
</svg>