<?xml version="1.0" encoding="UTF-8" standalone="no"?>
<svg width="96px" height="169px" viewBox="0 0 96 169" version="1.1" xmlns="http://www.w3.org/2000/svg" xmlns:xlink="http://www.w3.org/1999/xlink" xmlns:sketch="http://www.bohemiancoding.com/sketch/ns">
    <!-- Generator: Sketch 3.3.3 (12072) - http://www.bohemiancoding.com/sketch -->
    <title>Rectangle 1</title>
    <desc>Created with Sketch.</desc>
    <defs></defs>
    <g id="Page-3" stroke="none" stroke-width="1" fill="none" fill-rule="evenodd" sketch:type="MSPage">
        <g id="180---iPhone-6-Plus" sketch:type="MSArtboardGroup" transform="translate(-42.000000, -5.000000)" fill="#7A7A87">
            <path d="M42,15.0031103 C42,9.47854502 46.4695805,5 52.0020066,5 L127.997993,5 C133.521949,5 138,9.47680958 138,15.0031103 L138,163.99689 C138,169.521455 133.53042,174 127.997993,174 L52.0020066,174 C46.4780509,174 42,169.52319 42,163.99689 L42,15.0031103 Z M49,24.001688 C49,18.4779082 53.4771443,14 58.9911036,14 L122.008896,14 C127.526831,14 132,18.4779338 132,24.001688 L132,132.998312 C132,138.522092 127.522856,143 122.008896,143 L58.9911036,143 C53.4731694,143 49,138.522066 49,132.998312 L49,24.001688 Z M91,169 C95.9705627,169 100,164.970563 100,160 C100,155.029437 95.9705627,151 91,151 C86.0294373,151 82,155.029437 82,160 C82,164.970563 86.0294373,169 91,169 Z" id="Rectangle-1" sketch:type="MSShapeGroup"></path>
        </g>
    </g>
</svg>