<?xml version="1.0" encoding="UTF-8" standalone="no"?>
<svg width="70px" height="72px" viewBox="0 0 70 72" version="1.1" xmlns="http://www.w3.org/2000/svg" xmlns:xlink="http://www.w3.org/1999/xlink" xmlns:sketch="http://www.bohemiancoding.com/sketch/ns">
    <!-- Generator: Sketch 3.3.3 (12072) - http://www.bohemiancoding.com/sketch -->
    <title>fs_icon_lightning</title>
    <desc>Created with Sketch.</desc>
    <defs></defs>
    <g id="Landing-Page" stroke="none" stroke-width="1" fill="none" fill-rule="evenodd" sketch:type="MSPage">
        <g id="Landing-Page-Desktop-1024" sketch:type="MSArtboardGroup" transform="translate(-269.000000, -2433.000000)">
            <g id="Benefit-2" sketch:type="MSLayerGroup" transform="translate(0.000000, 2016.000000)">
                <g id="Field-Points" transform="translate(161.000000, 340.000000)" sketch:type="MSShapeGroup">
                    <g id="When-your-account-he-+-Structured-Communica-+-Oval-4-+-When-your-account-he-+-Structured-Communica-+-Oval-4-Copy-+-When-your-account-he-+-Structured-Communica-+-Oval-4-Copy-2" transform="translate(0.000000, 77.000000)">
                        <g id="When-your-account-he-+-Structured-Communica-+-Oval-4">
                            <g id="fs_icon_lightning" transform="translate(108.000000, 0.000000)">
                                <path d="M34.875,72 C54.1359306,72 69.75,56.3859306 69.75,37.125 C69.75,17.8640694 54.1359306,2.25 34.875,2.25 C15.6140694,2.25 0,17.8640694 0,37.125 C0,56.3859306 15.6140694,72 34.875,72 Z" id="Oval" fill="#25263B"></path>
                                <circle id="Oval" fill="#334667" cx="34.875" cy="34.875" r="34.875"></circle>
                                <path d="M31.3875,47.7 L31.3875,41.625 L25.875,42.1875 L31.3875,47.7 Z" id="Shape" fill="#25263B"></path>
                                <path d="M29.7,29.25 L25.875,29.8125 L29.7,33.75 L29.7,29.25 Z" id="Shape" fill="#25263B"></path>
                                <path d="M42.075,16.875 L31.95,26.8875 L31.5,52.3125 L46.575,67.3875 C57.2625,63.45 65.475,54.45 68.4,43.2 L42.075,16.875 L42.075,16.875 Z" id="Shape" opacity="0.5" fill="#25263B"></path>
                                <path d="M43.7625,27.45 C43.875,27.3375 43.875,27.1125 43.875,26.8875 C43.875,26.2125 43.425,25.7625 42.75,25.7625 L39.825,25.7625 L42.6375,18.3375 C42.6375,18.225 42.75,18.1125 42.75,18 C42.75,17.325 42.3,16.875 41.625,16.875 L31.5,16.875 C31.05,16.875 30.6,17.2125 30.4875,17.55 L30.4875,17.55 L25.9875,28.8 L25.9875,28.8 L25.9875,28.8 C25.9875,28.9125 25.875,29.025 25.875,29.25 C25.875,29.925 26.325,30.375 27,30.375 L29.925,30.375 L25.9875,41.2875 C25.9875,41.4 25.875,41.5125 25.875,41.625 C25.875,42.3 26.325,42.75 27,42.75 L31.5,42.75 L31.5,51.75 C31.5,52.425 31.95,52.875 32.625,52.875 C33.075,52.875 33.4125,52.65 33.6375,52.3125 L33.6375,52.3125 L40.3875,39.9375 C40.5,39.825 40.5,39.6 40.5,39.375 C40.5,38.7 40.05,38.25 39.375,38.25 L37.9125,38.25 L43.7625,27.45 L43.7625,27.45 Z" id="Shape" fill="#FFFCF2"></path>
                            </g>
                        </g>
                    </g>
                </g>
            </g>
        </g>
    </g>
</svg>