<?xml version="1.0" encoding="UTF-8" standalone="no"?>
<svg width="220px" height="442px" viewBox="0 0 220 442" version="1.1" xmlns="http://www.w3.org/2000/svg" xmlns:xlink="http://www.w3.org/1999/xlink" xmlns:sketch="http://www.bohemiancoding.com/sketch/ns">
    <!-- Generator: Sketch 3.3.3 (12072) - http://www.bohemiancoding.com/sketch -->
    <title>fs_icon_rig</title>
    <desc>Created with Sketch.</desc>
    <defs></defs>
    <g id="Landing-Page" stroke="none" stroke-width="1" fill="none" fill-rule="evenodd" sketch:type="MSPage">
        <g id="Landing-Page-Desktop-1024" sketch:type="MSArtboardGroup" transform="translate(-187.000000, -3153.000000)">
            <g id="Benefit-3" sketch:type="MSLayerGroup" transform="translate(0.000000, 2996.000000)">
                <g id="fs_icon_rig" transform="translate(186.000000, 157.000000)" sketch:type="MSShapeGroup">
                    <path d="M132,14 L137,14 L137,434 L132,434 L132,14 Z" id="Fill-1" fill="#5F5F5F"></path>
                    <path d="M156,134 L156,135.556079 L160.7503,135.556079 L160.7503,144.88902 L162.334132,144.88902 L162.334132,135.556079 L167.083233,135.556079 L167.083233,146.443921 L168.668264,146.443921 L168.668264,135.556079 L173.418564,135.556079 L173.418564,148 L175,148 L175,134 L156,134" id="Fill-2" fill="#A60311"></path>
                    <path d="M154,12 L158,12 L158,420 L154,420 L154,12 Z" id="Fill-3" fill="#5F5F5F"></path>
                    <path d="M111,12 L115,12 L115,342 L111,342 L111,12 Z" id="Fill-4" fill="#5F5F5F"></path>
                    <path d="M150.089618,420 L154,420 L114.909198,341 L111,341 L150.089618,420" id="Fill-5" fill="#5F5F5F"></path>
                    <path d="M75.9081228,420 L72,420 L111.090694,341 L115,341 L75.9081228,420" id="Fill-6" fill="#5F5F5F"></path>
                    <path d="M1,416 L221,416 L221,442 L1,442 L1,416 Z" id="Fill-7" fill="#5F5F5F"></path>
                    <path d="M155,114 L155,110.761963 L114,80 L114,83.2380369 L155,114" id="Fill-8" fill="#5F5F5F"></path>
                    <path d="M114,80 L158,80 L158,81 L114,81 L114,80 Z" id="Fill-9" fill="#5F5F5F"></path>
                    <path d="M111,31 L114.13444,31 L158,14 L154.866746,14 L111,31" id="Fill-10" fill="#334667"></path>
                    <path d="M158,51 L154.866746,51 L111,34 L114.13444,34 L158,51" id="Fill-11" fill="#334667"></path>
                    <path d="M114,32 L158,32 L158,33 L114,33 L114,32 Z" id="Fill-12" fill="#334667"></path>
                    <path d="M111,145 L114.13444,145 L158,111 L154.866746,111 L111,145" id="Fill-13" fill="#5F5F5F"></path>
                    <path d="M155,176 L155,172.761963 L114,142 L114,145.238037 L155,176" id="Fill-14" fill="#5F5F5F"></path>
                    <path d="M114,142 L158,142 L158,143 L114,143 L114,142 Z" id="Fill-15" fill="#5F5F5F"></path>
                    <path d="M111,210 L114.13444,210 L158,176 L154.866746,176 L111,210" id="Fill-16" fill="#5F5F5F"></path>
                    <path d="M155,241 L155,237.76208 L114,207 L114,210.23792 L155,241" id="Fill-17" fill="#5F5F5F"></path>
                    <path d="M114,207 L158,207 L158,208 L114,208 L114,207 Z" id="Fill-18" fill="#5F5F5F"></path>
                    <path d="M111,273 L114.13444,273 L158,239 L154.866746,239 L111,273" id="Fill-19" fill="#5F5F5F"></path>
                    <path d="M155,305 L155,301.76208 L114,271 L114,274.239145 L155,305" id="Fill-20" fill="#5F5F5F"></path>
                    <path d="M114,271 L158,271 L158,272 L114,272 L114,271 Z" id="Fill-21" fill="#5F5F5F"></path>
                    <path d="M119,354 L122.118867,354 L158,340 L154.879953,340 L119,354" id="Fill-22" fill="#5F5F5F"></path>
                    <path d="M158,371 L154.879953,371 L119,357 L122.118867,357 L158,371" id="Fill-23" fill="#5F5F5F"></path>
                    <path d="M119,354 L158,354 L158,355 L119,355 L119,354 Z" id="Fill-24" fill="#5F5F5F"></path>
                    <path d="M134,385 L135.839118,385 L157,371 L155.160882,371 L134,385" id="Fill-25" fill="#5F5F5F"></path>
                    <path d="M157,400 L155.160882,400 L134,386 L135.839118,386 L157,400" id="Fill-26" fill="#5F5F5F"></path>
                    <path d="M134,385 L157,385 L157,386 L134,386 L134,385 Z" id="Fill-27" fill="#5F5F5F"></path>
                    <path d="M111,338 L114.13444,338 L158,304 L154.866746,304 L111,338" id="Fill-28" fill="#5F5F5F"></path>
                    <path d="M114,337 L158,337 L158,341 L114,341 L114,337 Z" id="Fill-29" fill="#5F5F5F"></path>
                    <path d="M89,388 L136,388 L136,389 L89,389 L89,388 Z" id="Fill-30" fill="#5F5F5F"></path>
                    <path d="M106,339.500568 C106,341.986379 108.014502,344 110.5,344 C112.986633,344 115,341.986379 115,339.500568 C115,337.014756 112.986633,335 110.5,335 C108.014502,335 106,337.014756 106,339.500568" id="Fill-31" fill="#5F5F5F"></path>
                    <path d="M111,149 L158,149 L158,220 L111,220 L111,149 Z" id="Fill-32" fill="#334667"></path>
                    <path d="M158,145 L175,145 L175,148 L158,148 L158,145 Z" id="Fill-33" fill="#5F5F5F"></path>
                    <path d="M111,12 L115,12 L115,80 L111,80 L111,12 Z" id="Fill-34" fill="#334667"></path>
                    <path d="M154,12 L158,12 L158,80 L154,80 L154,12 Z" id="Fill-35" fill="#334667"></path>
                    <path d="M114,80 L155.860548,49 L159,49 L117.139452,80 L114,80" id="Fill-36" fill="#334667"></path>
                    <path d="M161.416134,0 L106,0 L106,14 L163,14 L163,0 L161.416134,0 L161.416134,0 Z M107.583866,1.55490163 L110.751597,1.55490163 L110.751597,10.8878426 L107.583866,10.8878426 L107.583866,1.55490163 Z M112.333067,1.55490163 L117.083466,1.55490163 L117.083466,10.8878426 L112.333067,10.8878426 L112.333067,1.55490163 Z M118.66853,1.55490163 L123.41893,1.55490163 L123.41893,10.8878426 L118.66853,10.8878426 L118.66853,1.55490163 Z M125.000399,1.55490163 L129.750799,1.55490163 L129.750799,10.8878426 L125.000399,10.8878426 L125.000399,1.55490163 Z M131.334665,1.55490163 L136.085064,1.55490163 L136.085064,10.8878426 L131.334665,10.8878426 L131.334665,1.55490163 Z M137.666534,1.55490163 L142.416933,1.55490163 L142.416933,10.8878426 L137.666534,10.8878426 L137.666534,1.55490163 Z M143.998403,1.55490163 L148.748802,1.55490163 L148.748802,10.8878426 L143.998403,10.8878426 L143.998403,1.55490163 Z M150.332668,1.55490163 L155.083067,1.55490163 L155.083067,10.8878426 L150.332668,10.8878426 L150.332668,1.55490163 Z M156.665735,1.55490163 L161.416134,1.55490163 L161.416134,10.8878426 L156.665735,10.8878426 L156.665735,1.55490163 Z" id="Fill-37" fill="#A60311"></path>
                    <path d="M219.429225,402 L1,402 L1,416 L2.57315274,416 L2.57315274,403.555032 L5.71470189,403.555032 L5.71470189,416 L7.28785463,416 L7.28785463,403.555032 L12.0013674,403.555032 L12.0013674,416 L13.5733311,416 L13.5733311,403.555032 L18.2868439,403.555032 L18.2868439,416 L19.8588076,416 L19.8588076,403.555032 L24.5735095,403.555032 L24.5735095,416 L26.1454731,416 L26.1454731,403.555032 L30.8577969,403.555032 L30.8577969,416 L32.4285714,416 L32.4285714,403.555032 L37.1432733,403.555032 L37.1432733,416 L38.7140479,416 L38.7140479,403.555032 L43.4287498,403.555032 L43.4287498,416 L45.0007134,416 L45.0007134,403.555032 L49.7154153,403.555032 L49.7154153,416 L51.2861899,416 L51.2861899,403.555032 L56.0008918,403.555032 L56.0008918,416 L57.5728555,416 L57.5728555,403.555032 L62.2863683,403.555032 L62.2863683,416 L63.859521,416 L63.859521,403.555032 L68.5730338,403.555032 L68.5730338,416 L70.1438084,416 L70.1438084,403.555032 L74.8585103,403.555032 L74.8585103,416 L76.430474,416 L76.430474,403.555032 L81.1451758,403.555032 L81.1451758,416 L82.7147613,416 L82.7147613,403.555032 L87.4294632,403.555032 L87.4294632,416 L88.9990487,416 L88.9990487,403.555032 L93.7137506,403.555032 L93.7137506,416 L95.2857143,416 L95.2857143,403.555032 L100.000416,403.555032 L100.000416,416 L101.57238,416 L101.57238,403.555032 L106.285893,403.555032 L106.285893,416 L107.857856,416 L107.857856,403.555032 L112.571369,403.555032 L112.571369,416 L114.144522,416 L114.144522,403.555032 L118.859224,403.555032 L118.859224,416 L120.428809,416 L120.428809,403.555032 L125.143511,403.555032 L125.143511,416 L126.715475,416 L126.715475,403.555032 L131.430177,403.555032 L131.430177,416 L133.000951,416 L133.000951,403.555032 L137.714464,403.555032 L137.714464,416 L139.286428,416 L139.286428,403.555032 L143.998751,403.555032 L143.998751,416 L145.570715,416 L145.570715,403.555032 L150.285417,403.555032 L150.285417,416 L151.857381,416 L151.857381,403.555032 L156.570893,403.555032 L156.570893,416 L158.142857,416 L158.142857,403.555032 L162.857559,403.555032 L162.857559,416 L164.429523,416 L164.429523,403.555032 L169.144225,403.555032 L169.144225,416 L170.714999,416 L170.714999,403.555032 L175.428512,403.555032 L175.428512,416 L177.000476,416 L177.000476,403.555032 L181.713988,403.555032 L181.713988,416 L183.284763,416 L183.284763,403.555032 L187.999465,403.555032 L187.999465,416 L189.571429,416 L189.571429,403.555032 L194.28613,403.555032 L194.28613,416 L195.856905,416 L195.856905,403.555032 L200.571607,403.555032 L200.571607,416 L202.143571,416 L202.143571,403.555032 L206.858272,403.555032 L206.858272,416 L208.427858,416 L208.427858,403.555032 L213.14256,403.555032 L213.14256,416 L214.714524,416 L214.714524,403.555032 L219.429225,403.555032 L219.429225,416 L221,416 L221,402 L219.429225,402" id="Fill-38" fill="#A60311"></path>
                </g>
            </g>
        </g>
    </g>
</svg>